<?xml version="1.0" encoding="UTF-8"?>
<svg xmlns="http://www.w3.org/2000/svg" xmlns:xlink="http://www.w3.org/1999/xlink" viewBox="0 0 276.66 247.9">
  <defs>
    <style>
      .cls-1 {
        fill: url(#Gradiente_sem_nome_25-2);
      }

      .cls-1, .cls-2, .cls-3, .cls-4, .cls-5, .cls-6, .cls-7, .cls-8, .cls-9, .cls-10 {
        stroke-width: 0px;
      }

      .cls-11 {
        letter-spacing: .38em;
      }

      .cls-12 {
        font-family: Montserrat-Medium, Montserrat;
        font-size: 18px;
        font-weight: 500;
      }

      .cls-12, .cls-13, .cls-14, .cls-9 {
        fill: #fff;
      }

      .cls-15 {
        letter-spacing: -.02em;
      }

      .cls-2 {
        fill: url(#Gradiente_sem_nome_43);
      }

      .cls-3 {
        fill: url(#Gradiente_sem_nome_24);
      }

      .cls-13 {
        font-size: 47.35px;
      }

      .cls-13, .cls-14 {
        font-family: Montserrat-ExtraBold, Montserrat;
        font-weight: 700;
      }

      .cls-16 {
        letter-spacing: .39em;
      }

      .cls-17 {
        letter-spacing: .39em;
      }

      .cls-4 {
        fill: url(#Gradiente_sem_nome_62);
      }

      .cls-4, .cls-7, .cls-10 {
        mix-blend-mode: multiply;
      }

      .cls-18 {
        isolation: isolate;
      }

      .cls-19 {
        letter-spacing: .4em;
      }

      .cls-14 {
        font-size: 144.38px;
        letter-spacing: 0em;
        stroke: #0018ff;
        stroke-miterlimit: 10;
        stroke-width: .99px;
      }

      .cls-20 {
        letter-spacing: 0em;
      }

      .cls-21 {
        letter-spacing: .38em;
      }

      .cls-22 {
        letter-spacing: .4em;
      }

      .cls-5 {
        fill: url(#Gradiente_sem_nome_21);
      }

      .cls-23 {
        letter-spacing: .33em;
      }

      .cls-6 {
        fill: url(#Gradiente_sem_nome_25);
      }

      .cls-7 {
        fill: url(#linear-gradient);
      }

      .cls-8 {
        fill: #c5f35d;
      }

      .cls-24 {
        letter-spacing: 0em;
      }

      .cls-10 {
        fill: url(#Gradiente_sem_nome_62-2);
      }
    </style>
    <linearGradient id="Gradiente_sem_nome_43" data-name="Gradiente sem nome 43" x1="124.68" y1="59.32" x2="128.83" y2="169.32" gradientTransform="translate(273.99) rotate(-180) scale(1 -1)" gradientUnits="userSpaceOnUse">
      <stop offset="0" stop-color="#6683d3"/>
      <stop offset=".18" stop-color="#5976d4"/>
      <stop offset=".52" stop-color="#3854d7"/>
      <stop offset=".98" stop-color="#021ddc"/>
      <stop offset="1" stop-color="#001bdd"/>
    </linearGradient>
    <linearGradient id="linear-gradient" x1="124.36" y1="152.5" x2="125.69" y2="125.07" gradientTransform="translate(273.99) rotate(-180) scale(1 -1)" gradientUnits="userSpaceOnUse">
      <stop offset="0" stop-color="#5cbffc" stop-opacity="0"/>
      <stop offset=".32" stop-color="rgba(92, 129, 224, .38)" stop-opacity=".38"/>
      <stop offset=".64" stop-color="rgba(92, 74, 199, .71)" stop-opacity=".71"/>
      <stop offset=".88" stop-color="rgba(92, 40, 183, .92)" stop-opacity=".92"/>
      <stop offset="1" stop-color="#5c1cb2"/>
    </linearGradient>
    <linearGradient id="Gradiente_sem_nome_24" data-name="Gradiente sem nome 24" x1="125.53" y1="68.76" x2="123.99" y2="-1.28" gradientTransform="translate(273.99) rotate(-180) scale(1 -1)" gradientUnits="userSpaceOnUse">
      <stop offset="0" stop-color="#0018ff"/>
      <stop offset="1" stop-color="#c5f35d"/>
    </linearGradient>
    <linearGradient id="Gradiente_sem_nome_62" data-name="Gradiente sem nome 62" x1="-23.17" y1="90.97" x2="121.59" y2="60.99" gradientTransform="translate(273.99) rotate(-180) scale(1 -1)" gradientUnits="userSpaceOnUse">
      <stop offset="0" stop-color="#95c11f" stop-opacity="0"/>
      <stop offset=".21" stop-color="rgba(112, 151, 85, .24)" stop-opacity=".24"/>
      <stop offset=".5" stop-color="rgba(64, 97, 157, .56)" stop-opacity=".56"/>
      <stop offset=".73" stop-color="rgba(29, 57, 210, .8)" stop-opacity=".8"/>
      <stop offset=".91" stop-color="rgba(8, 33, 242, .94)" stop-opacity=".94"/>
      <stop offset="1" stop-color="#0018ff"/>
    </linearGradient>
    <linearGradient id="Gradiente_sem_nome_21" data-name="Gradiente sem nome 21" x1="209.79" y1="59.9" x2="56.29" y2="230.17" gradientTransform="translate(273.99) rotate(-180) scale(1 -1)" gradientUnits="userSpaceOnUse">
      <stop offset="0" stop-color="#95c11f"/>
      <stop offset=".18" stop-color="#a5a337"/>
      <stop offset=".57" stop-color="#cd5976"/>
      <stop offset="1" stop-color="#ff00c1"/>
    </linearGradient>
    <linearGradient id="Gradiente_sem_nome_62-2" data-name="Gradiente sem nome 62" x1="235.67" y1="92.2" x2="230.95" y2="24.05" xlink:href="#Gradiente_sem_nome_62"/>
    <linearGradient id="Gradiente_sem_nome_25" data-name="Gradiente sem nome 25" x1="210.87" y1="73.26" x2="220.23" y2="25" gradientTransform="translate(273.99) rotate(-180) scale(1 -1)" gradientUnits="userSpaceOnUse">
      <stop offset="0" stop-color="#0018ff"/>
      <stop offset=".13" stop-color="#0e28e9"/>
      <stop offset=".39" stop-color="#3352b1"/>
      <stop offset=".77" stop-color="#6e9459"/>
      <stop offset="1" stop-color="#95c11f"/>
    </linearGradient>
    <linearGradient id="Gradiente_sem_nome_25-2" data-name="Gradiente sem nome 25" x1="229.68" y1="76.91" x2="239.04" y2="28.65" xlink:href="#Gradiente_sem_nome_25"/>
  </defs>
  <g class="cls-18">
    <g id="Camada_2" data-name="Camada 2">
      <g id="OBJECTS">
        <text class="cls-14" transform="translate(65.68 127.96) scale(1.14 1)"><tspan x="0" y="0">IX</tspan></text>
        <path class="cls-8" d="M102.7,170.67h92.27s-1.43-4.45-1.43-4.45c-.77-2.39-3-4.01-5.51-4.01h-6.71c-1.71,0-3.25-.99-3.97-2.49-.12-.25-.23-.52-.3-.79l-1.57-5.93-1.55-5.83h-50.19s-1.55,5.83-1.55,5.83l-1.57,5.93c-.07.27-.18.54-.3.79-.72,1.5-2.25,2.49-3.97,2.49h-6.71c-2.51,0-4.73,1.62-5.5,4.01l-1.44,4.45Z"/>
        <polygon class="cls-9" points="122.19 153 175.48 153 173.93 147.17 123.74 147.17 122.19 153"/>
        <path class="cls-2" d="M65.91,40.47v2.6s.02.01.02.01v-2.61h-.02ZM65.91,40.47v2.6s.02.01.02.01v-2.61h-.02ZM65.91,40.47v2.6s.02.01.02.01v-2.61h-.02ZM65.91,40.47v2.6s.02.01.02.01v-2.61h-.02ZM65.91,40.47v2.6s.02.01.02.01v-2.61h-.02ZM53.41,5.04l.04,14.35.04,16.57v.92s0,3.18,0,3.18v4.76s0,1.17,0,1.17l.02,7.26.04,18.18.04,13.44.08,32.85h-.14s.05,19.24.05,19.24v2.07c0,2.77,2.29,5.04,5.07,5.04h180.56c2.78,0,5.04-2.27,5.04-5.04v-2.07s-.07-25.07-.07-25.07l-.02-9.09-.02-6.51v-2.03s-.02-8-.02-8l-.02-7.6-.19-73.62C243.92,2.27,241.64,0,238.86,0H58.44c-2.77,0-5.04,2.27-5.03,5.04ZM65.99,72.75h0s-.02-11.16-.02-11.16v-2.44s-.02-6.43-.02-6.43v-1.43s-.02-8.21-.02-8.21v-2.61s-.06-20.24-.06-20.24l-.02-10.34h165.72s.16,71.52.16,71.52l.04,14.69v2.07s0,4.22,0,4.22v1.32s.03,8.56.03,8.56v6.53s-165.71,0-165.71,0l-.11-46.05ZM65.91,40.47v2.6s.02.01.02.01v-2.61h-.02ZM65.91,40.47v2.6s.02.01.02.01v-2.61h-.02ZM65.91,40.47v2.6s.02.01.02.01v-2.61h-.02ZM65.91,40.47v2.6s.02.01.02.01v-2.61h-.02ZM65.91,40.47v2.6s.02.01.02.01v-2.61h-.02Z"/>
        <path class="cls-7" d="M244.25,136.96v2.06c.01,2.77-2.25,5.04-5.03,5.04H58.66c-2.78,0-5.06-2.27-5.06-5.04v-2.06s190.65,0,190.65,0Z"/>
        <path class="cls-3" d="M53.41,5.04l.03,14.35.03,16.56v.92s0,3.18,0,3.18c.01,0,.01,0,.02.01,4.12,2.23,8.27,4.42,12.42,6.6v-3.59s0-2.6,0-2.6l-.04-20.24-.02-10.34h165.72s.16,71.52.16,71.52l.04,14.69v2.07s0,4.22,0,4.22c4.13.25,8.26.37,12.39.4l-.02-6.5v-1.09s-.04-16.54-.04-16.54l-.18-73.62C243.92,2.27,241.64,0,238.86,0H58.44c-2.77,0-5.04,2.27-5.03,5.04Z"/>
        <polygon class="cls-9" points="53.49 36.88 53.5 40.06 53.51 44.82 53.51 45.99 53.53 53.25 53.57 71.43 53.61 84.87 65.99 72.75 65.99 72.74 65.97 61.59 65.96 59.15 65.95 52.72 65.95 51.29 65.93 43.08 65.91 43.07 53.49 36.88"/>
        <path class="cls-9" d="M231.77,98.17v4.22s.02,1.32.02,1.32l.02,8.56c4.24.02,8.4-.1,12.39-.38l-.02-9.09-.02-6.51h0c-3.8.82-7.94,1.45-12.38,1.88Z"/>
        <path class="cls-9" d="M231.73,81.41l.04,14.69c1-.02,1.99-.06,2.97-.12,3.25-.15,6.41-.41,9.41-.78h.01s0-.94,0-.94l-.02-8-.02-7.6h-.01c-3.7,1.14-7.84,2.06-12.38,2.75Z"/>
        <path class="cls-9" d="M87.14,59.24c.13.14,1.21,1.31,3.47,3.21,1.27,1.07,2.9,2.36,4.95,3.84.41.29.84.59,1.28.9.7.49,1.43.99,2.21,1.5.46.31.94.62,1.44.94.79.51,1.63,1.04,2.5,1.57.58.35,1.18.71,1.8,1.08.16.09.31.18.47.28.03.01.06.03.1.05.44.26.89.52,1.35.78.66.38,1.33.76,2.03,1.14,2.43,1.34,5.1,2.73,8.01,4.15.84.4,1.69.81,2.57,1.22.43.2.88.41,1.32.61,3.58,1.65,7.49,3.32,11.76,4.99.53.21,1.07.42,1.62.63,2.17.84,4.44,1.68,6.8,2.51.59.21,1.18.41,1.78.62,1.2.42,2.43.83,3.68,1.24.62.21,1.25.42,1.89.62,4.44,1.44,9.18,2.86,14.23,4.23.72.2,1.44.39,2.18.59.73.19,1.47.39,2.21.58,1.49.39,3.01.77,4.55,1.15,14.56,3.57,39.22,6.71,60.45,6.04,4.31-.14,8.48-.43,12.39-.91,8.74-1.07,16.22-3.07,21.15-6.31,8.03-5.28,11.33-11.19,11.33-17.24,0-.3,0-.6-.03-.9,0-.35-.04-.71-.08-1.06-.04-.32-.09-.64-.14-.97-.04-.24-.09-.49-.14-.74-.02-.07-.03-.14-.05-.21h0c0-.07-.03-.14-.04-.2-.06-.27-.13-.54-.21-.81,0-.04-.02-.07-.03-.11-.08-.28-.16-.56-.25-.84-.22-.67-.47-1.33-.75-2-.13-.3-.26-.61-.4-.92-.02-.02-.02-.04-.03-.06-.29-.6-.6-1.21-.93-1.81-.03-.05-.06-.09-.08-.14-.19-.32-.37-.64-.56-.96-.04-.05-.07-.1-.09-.14-.16-.25-.31-.5-.46-.74l-.02-.02s-.04-.06-.05-.08c-.22-.33-.43-.65-.66-.97-.25-.37-.52-.74-.78-1.1-.05-.06-.09-.12-.13-.17-.17-.22-.33-.44-.5-.65-.5-.64-1.02-1.27-1.56-1.9-.24-.28-.48-.56-.73-.84-.43-.48-.88-.95-1.33-1.43-.47-.49-.95-.98-1.45-1.46-.3-.3-.61-.59-.92-.89-.01-.01-.02-.01-.03-.02-.32-.31-.64-.61-.97-.91-.29-.26-.59-.53-.88-.8-.04-.02-.08-.06-.12-.1-.34-.3-.68-.59-1.03-.89-1.04-.88-2.11-1.75-3.21-2.6-.36-.28-.73-.56-1.09-.84h0c-.38-.28-.75-.56-1.13-.84-.1-.07-.2-.14-.3-.22l-.84-.6c-3.38-2.41-6.95-4.66-10.56-6.69v.76c2.61,2.17,5.2,4.79,7.51,7.66.86,1.07,1.69,2.18,2.46,3.32,2.76,4.02,4.87,8.35,5.73,12.48,1.4,6.57-.33,12.66-7.56,16.25-2.4,1.19-5.1,2.25-8.09,3.17h-.01c-3.71,1.14-7.85,2.06-12.38,2.76-26.04,3.96-65.04.19-108.6-14.98-11.73-4.08-23.78-9-36.01-14.8Z"/>
        <path class="cls-4" d="M90.61,62.45c1.27,1.07,2.9,2.36,4.95,3.84.41.29.84.59,1.28.9.7.49,1.43.99,2.21,1.5.46.31.94.62,1.44.94.79.51,1.63,1.04,2.5,1.57.58.35,1.18.71,1.8,1.08.16.09.31.18.47.28.03.01.06.03.1.05.44.26.89.52,1.35.78.66.38,1.33.76,2.03,1.14,2.43,1.34,5.1,2.73,8.01,4.15.84.4,1.69.81,2.57,1.22.43.2.88.41,1.32.61,3.58,1.65,7.49,3.32,11.76,4.99.53.21,1.07.42,1.62.63,2.17.84,4.44,1.68,6.8,2.51.59.21,1.18.41,1.78.62,1.2.42,2.43.83,3.68,1.24.62.21,1.25.42,1.89.62,4.44,1.44,9.18,2.86,14.23,4.23.72.2,1.44.39,2.18.59.73.19,1.47.39,2.21.58,1.49.39,3.01.77,4.55,1.15,14.56,3.57,39.22,6.71,60.45,6.04,4.31-.14,8.48-.43,12.39-.91,8.74-1.07,16.22-3.07,21.15-6.31,8.03-5.28,11.33-11.19,11.33-17.24,0-.3,0-.6-.03-.9,0-.35-.04-.71-.08-1.06-.04-.32-.09-.64-.14-.97-.04-.24-.09-.49-.14-.74-.02-.07-.03-.14-.05-.21h0c0-.07-.03-.14-.04-.2-.06-.27-.13-.54-.21-.81,0-.04-.02-.07-.03-.11-.08-.28-.16-.56-.25-.84-.22-.67-.47-1.33-.75-2-.13-.3-.26-.61-.4-.92-.02-.02-.02-.04-.03-.06-.29-.6-.6-1.21-.93-1.81-.03-.05-.06-.09-.08-.14-.19-.32-.37-.64-.56-.96-.04-.05-.07-.1-.09-.14-.16-.25-.31-.5-.46-.74l-.02-.02s-.04-.06-.05-.08c-.22-.33-.43-.65-.66-.97-.25-.37-.52-.74-.78-1.1-.05-.06-.09-.12-.13-.17-.17-.22-.33-.44-.5-.65-.5-.64-1.02-1.27-1.56-1.9-.24-.28-.48-.56-.73-.84-.43-.48-.88-.95-1.33-1.43-.47-.49-.95-.98-1.45-1.46-.3-.3-.61-.59-.92-.89-.01-.01-.02-.01-.03-.02-.32-.31-.64-.61-.97-.91-.29-.26-.59-.53-.88-.8-.04-.02-.08-.06-.12-.1-1.36-1.19-2.77-2.35-4.24-3.49-.36-.28-.73-.56-1.09-.84h0c-.38-.28-.75-.56-1.13-.84-.1-.07-.2-.14-.3-.22l-.84-.6c4.33,3.58,7.9,7.2,10.43,10.83.34.49.66.98.96,1.47,3.71,6.02,4.43,12.05.83,17.97-1.99,3.27-5.29,6.5-10.12,9.67-3.26,2.14-7.57,3.78-12.59,5.01h0c-2.92.71-6.08,1.28-9.41,1.72-.97.13-1.96.25-2.97.36-22.3,2.4-51.05-.41-67.54-4.46-40.75-10.01-62.29-21.42-73.62-29.43Z"/>
        <g>
          <polygon class="cls-5" points="0 19.57 41.55 47.42 56.19 57.23 67.16 64.58 68.63 65.57 73.4 68.77 84.17 75.99 83.57 64.8 82.75 49.59 68.58 44.45 68.57 44.45 56.15 39.94 56.13 39.93 0 19.57"/>
          <polygon class="cls-10" points="83.57 64.79 0 19.57 82.75 49.59 83.57 64.79"/>
          <polygon class="cls-6" points="82.75 49.59 106.81 26.8 0 19.57 82.75 49.59"/>
          <polygon class="cls-1" points="0 19.57 29.46 52.93 52.55 79.06 56.23 75.41 67.16 64.58 68.62 63.13 72.81 58.98 73.82 57.98 68.61 55.27 56.17 48.8 47.95 44.52 0 19.57"/>
        </g>
      </g>
    </g>
  </g>
</svg>